<svg id="圖層_1" data-name="圖層 1" xmlns="http://www.w3.org/2000/svg" viewBox="0 0 247.73 27.08"><defs><style>.cls-1{fill:#102a42;}.cls-2{fill:#2caeba;}</style></defs><title>frontenddev</title><path class="cls-1" d="M132.85,24.53q0-4.62-2.37-7.13A8.4,8.4,0,0,0,124,14.89a9.48,9.48,0,0,0-4.88,1.26,8.34,8.34,0,0,0-3.29,3.56,11.4,11.4,0,0,0-1.17,5.23v.5a9.19,9.19,0,0,0,2.76,7A10,10,0,0,0,124.62,35a11,11,0,0,0,4.55-.92,8,8,0,0,0,3.26-2.59l-2.63-2.86A5.84,5.84,0,0,1,125,30.86a4.84,4.84,0,0,1-3.31-1.15,4.79,4.79,0,0,1-1.55-3.05h12.74Zm-5.25-1.42h-7.44a5.34,5.34,0,0,1,1.26-3,3.43,3.43,0,0,1,2.59-1,3.49,3.49,0,0,1,2.63,1,3.74,3.74,0,0,1,1,2.66Z" transform="translate(-6.13 -7.96)"/><path class="cls-2" d="M188.39,34.62V9h7.88a11.86,11.86,0,0,1,6,1.53,10.51,10.51,0,0,1,4.17,4.32A13.29,13.29,0,0,1,208,21.25v1.18a13.31,13.31,0,0,1-1.48,6.35,10.46,10.46,0,0,1-4.13,4.31,12,12,0,0,1-6,1.55Zm5.27-21.32V30.39h2.55a5.73,5.73,0,0,0,4.73-2,9.14,9.14,0,0,0,1.67-5.78V21.23A9.24,9.24,0,0,0,201,15.32a5.7,5.7,0,0,0-4.73-2ZM223.83,35A9.37,9.37,0,0,1,217,32.41a9.14,9.14,0,0,1-2.62-6.84v-.49A11.44,11.44,0,0,1,215.5,20a8.07,8.07,0,0,1,3.13-3.48,8.8,8.8,0,0,1,4.64-1.23,7.86,7.86,0,0,1,6.13,2.46q2.25,2.46,2.25,7v2.07H219.54a4.74,4.74,0,0,0,1.48,3,4.52,4.52,0,0,0,3.15,1.13,5.48,5.48,0,0,0,4.59-2.13l2.5,2.79a7.69,7.69,0,0,1-3.09,2.53A10.24,10.24,0,0,1,223.83,35Zm-.58-15.61a3.21,3.21,0,0,0-2.46,1,5.3,5.3,0,0,0-1.19,2.92h7.07v-.4a3.72,3.72,0,0,0-.91-2.6A3.27,3.27,0,0,0,223.25,19.37ZM245,28.42l3.53-12.81h5.31l-6.42,19H242.6l-6.42-19h5.31Z" transform="translate(-6.13 -7.96)"/><path class="cls-1" d="M25.09,13.23H12.62v6h9.86v5H12.62V34.61H6.13V8h19Z" transform="translate(-6.13 -7.96)"/><path class="cls-1" d="M37.08,34.61H31.43V14.89h5.33v3.67Q38,14.46,41,14.46q.43,0,1.05.06v5.74a5.76,5.76,0,0,0-2.76.55,4,4,0,0,0-1.61,2,9.62,9.62,0,0,0-.62,3.82Z" transform="translate(-6.13 -7.96)"/><path class="cls-1" d="M57.33,14.48a8.76,8.76,0,0,1,7,2.95,11,11,0,0,1,2.53,7.38,10.5,10.5,0,0,1-2.62,7.29,8.92,8.92,0,0,1-7,2.92,8.5,8.5,0,0,1-6.74-2.89A10.86,10.86,0,0,1,48,24.71a11.47,11.47,0,0,1,1.14-5.34,9.48,9.48,0,0,1,3.13-3.54A8.78,8.78,0,0,1,57.33,14.48Zm.16,3.81A2.78,2.78,0,0,0,55,19.57q-.84,1.28-.84,5.09a11.52,11.52,0,0,0,.8,5,2.63,2.63,0,0,0,2.49,1.52,2.8,2.8,0,0,0,2.39-1.3q.92-1.3.92-4.95,0-3.89-.81-5.27A2.66,2.66,0,0,0,57.48,18.29Z" transform="translate(-6.13 -7.96)"/><path class="cls-1" d="M90,34.61H84.16V23.54A15.88,15.88,0,0,0,84,20.79a2.23,2.23,0,0,0-.76-1.26A2.26,2.26,0,0,0,81.72,19q-3.07,0-3.07,4.53V34.61H72.83V14.89h5.41v3.34a7.54,7.54,0,0,1,2.66-3.07,6,6,0,0,1,2.83-.68A6.6,6.6,0,0,1,88.26,16Q90,17.51,90,21.94Z" transform="translate(-6.13 -7.96)"/><path class="cls-1" d="M104.41,19.42v8.34a3.31,3.31,0,0,0,.47,2.09,3.09,3.09,0,0,0,2.2.53q.8,0,1.85-.08v4.32a25,25,0,0,1-3.65.43q-3.63,0-5.16-1.4t-1.52-5V19.42H95.47V14.89h3.46l.47-5.82,5-.39v6.21h4.24v4.53Z" transform="translate(-6.13 -7.96)"/><path class="cls-1" d="M155.1,34.61h-5.82V23.54a15.88,15.88,0,0,0-.16-2.75,2.23,2.23,0,0,0-.76-1.26,2.26,2.26,0,0,0-1.52-.52q-3.07,0-3.07,4.53V34.61H138V14.89h5.41v3.34A7.54,7.54,0,0,1,146,15.16a6,6,0,0,1,2.83-.68A6.6,6.6,0,0,1,153.38,16q1.72,1.51,1.72,5.95Z" transform="translate(-6.13 -7.96)"/><path class="cls-1" d="M178,8V34.61h-5.37V31.53q-2,3.5-5.44,3.5a6,6,0,0,1-5.15-2.67A12.61,12.61,0,0,1,160.2,25a13.59,13.59,0,0,1,1.89-7.7,6.2,6.2,0,0,1,5.47-2.78A5.53,5.53,0,0,1,172.4,17V8ZM172.4,23.15q0-4.65-2.82-4.65-3.37,0-3.37,6.56,0,5.84,3.15,5.84a2.74,2.74,0,0,0,2.13-1.05,4.47,4.47,0,0,0,.91-3Z" transform="translate(-6.13 -7.96)"/></svg>